<svg width="27" height="27" viewBox="0 0 27 27" fill="none" xmlns="http://www.w3.org/2000/svg">
<g clip-path="url(#clip0)">
<path d="M2.7 0C1.2042 0 0 1.2042 0 2.7V24.3C0 25.7958 1.2042 27 2.7 27H24.3C25.7958 27 27 25.7958 27 24.3V2.7C27 1.2042 25.7958 0 24.3 0H2.7ZM15.2331 3.97913V24.03L3.55894 21.5831V6.23869L15.2331 3.97913ZM15.9705 8.22994H22.7036C22.9514 8.22994 23.3904 8.56757 23.3904 9.03825L17.4909 13.0157C17.4548 13.027 17.3769 13.0262 17.3408 13.0157L15.9705 12.1517V8.22994ZM9.52763 10.4979C8.71203 10.4979 8.05647 10.8279 7.56169 11.4868C7.06691 12.1458 6.81919 13.0083 6.81919 14.0754C6.81919 15.0861 7.06338 15.9062 7.54988 16.5358C8.03712 17.1646 8.66646 17.4791 9.43988 17.4791C10.2336 17.4791 10.8771 17.1529 11.3704 16.5038C11.8636 15.8546 12.1103 14.9998 12.1095 13.9388C12.1095 12.9063 11.8716 12.074 11.3957 11.4429C10.9205 10.8119 10.298 10.4979 9.52763 10.4979ZM23.3921 10.6228V17.8318C23.3921 18.6165 22.8888 18.9456 22.3239 18.9456H15.9705V13.6164L17.2209 14.4754C17.3972 14.6049 17.6108 14.4754 17.6108 14.4754C17.3991 14.6049 23.3921 10.6228 23.3921 10.6228ZM9.49388 11.8074C9.90807 11.8074 10.2339 12.001 10.4726 12.3896C10.7114 12.779 10.8304 13.3235 10.8304 14.0231C10.8304 14.6941 10.7063 15.2195 10.4608 15.5976C10.2153 15.9756 9.88297 16.1646 9.4635 16.1646C9.05683 16.1646 8.72878 15.9717 8.478 15.5824C8.22722 15.1938 8.1 14.6649 8.1 13.9961C8.1 13.3372 8.22722 12.8081 8.478 12.4082C8.72878 12.0083 9.06763 11.8074 9.49388 11.8074Z" fill="black"/>
</g>
<defs>
<clipPath id="clip0">
<rect width="27" height="27" fill="white"/>
</clipPath>
</defs>
</svg>
